<svg xmlns="http://www.w3.org/2000/svg" width="800" height="320" viewBox="0 0 800 320">
  <defs>
    <linearGradient id="bg-app-store-research-workflow" x1="0%" y1="0%" x2="100%" y2="100%">
      <stop offset="0%" style="stop-color:#f8fafc"/>
      <stop offset="100%" style="stop-color:#e2e8f0"/>
    </linearGradient>
    <linearGradient id="acc-app-store-research-workflow" x1="0%" y1="0%" x2="100%" y2="0%">
      <stop offset="0%" style="stop-color:#475569"/>
      <stop offset="100%" style="stop-color:#94a3b8"/>
    </linearGradient>
  </defs>
  <rect width="800" height="320" fill="url(#bg-app-store-research-workflow)" rx="20"/>
  <circle cx="524" cy="174" r="104" fill="#475569" opacity="0.09"/><circle cx="679" cy="94" r="89" fill="#94a3b8" opacity="0.13"/><circle cx="539" cy="22" r="67" fill="#475569" opacity="0.14"/><circle cx="480" cy="133" r="34" fill="#94a3b8" opacity="0.07"/><circle cx="226" cy="181" r="60" fill="#475569" opacity="0.09"/><circle cx="211" cy="60" r="63" fill="#94a3b8" opacity="0.17"/>
  <rect x="634" y="114" width="114" height="114" rx="12" fill="none" stroke="#475569" stroke-width="2" opacity="0.15" transform="rotate(274 691 171)"/><rect x="638" y="197" width="69" height="69" rx="12" fill="none" stroke="#475569" stroke-width="2" opacity="0.15" transform="rotate(154 672 231)"/><rect x="567" y="70" width="129" height="129" rx="12" fill="none" stroke="#475569" stroke-width="2" opacity="0.15" transform="rotate(162 631 134)"/>
  <rect x="40" y="40" width="72" height="72" rx="18" fill="url(#acc-app-store-research-workflow)"/>
  <text x="76" y="92" font-family="-apple-system,BlinkMacSystemFont,sans-serif" font-size="38" font-weight="900" fill="white" text-anchor="middle">⚙</text>
  <text x="130" y="80" font-family="-apple-system,BlinkMacSystemFont,sans-serif" font-size="14" font-weight="800" fill="#475569" letter-spacing="0.08em">WORKFLOW</text>
  <text x="40" y="160" font-family="-apple-system,BlinkMacSystemFont,sans-serif" font-size="13" fill="#64748b" font-weight="500">Storewise · Decision Research</text>
  <rect x="40" y="180" width="6" height="60" rx="3" fill="url(#acc-app-store-research-workflow)"/>
  <text x="60" y="210" font-family="-apple-system,BlinkMacSystemFont,sans-serif" font-size="18" font-weight="700" fill="#1e293b">A Practical App Store Research Workflow Before You Pay</text>
  <text x="40" y="250" font-family="-apple-system,BlinkMacSystemFont,sans-serif" font-size="13" fill="#475569" font-weight="600">souk.eu.org/articles/app-store-research-workflow</text>
</svg>