<svg xmlns="http://www.w3.org/2000/svg" width="800" height="320" viewBox="0 0 800 320">
  <defs>
    <linearGradient id="bg-case-study-family-sharing-charge-dispute-resolved" x1="0%" y1="0%" x2="100%" y2="100%">
      <stop offset="0%" style="stop-color:#fff7ed"/>
      <stop offset="100%" style="stop-color:#fed7aa"/>
    </linearGradient>
    <linearGradient id="acc-case-study-family-sharing-charge-dispute-resolved" x1="0%" y1="0%" x2="100%" y2="0%">
      <stop offset="0%" style="stop-color:#ea580c"/>
      <stop offset="100%" style="stop-color:#fb923c"/>
    </linearGradient>
  </defs>
  <rect width="800" height="320" fill="url(#bg-case-study-family-sharing-charge-dispute-resolved)" rx="20"/>
  <circle cx="284" cy="94" r="104" fill="#ea580c" opacity="0.19"/><circle cx="814" cy="162" r="39" fill="#fb923c" opacity="0.08"/><circle cx="147" cy="164" r="101" fill="#ea580c" opacity="0.09"/><circle cx="356" cy="138" r="78" fill="#fb923c" opacity="0.06"/><circle cx="369" cy="259" r="96" fill="#ea580c" opacity="0.12"/><circle cx="169" cy="158" r="108" fill="#fb923c" opacity="0.14"/>
  <rect x="694" y="74" width="74" height="74" rx="12" fill="none" stroke="#ea580c" stroke-width="2" opacity="0.15" transform="rotate(194 731 111)"/><rect x="655" y="231" width="104" height="104" rx="12" fill="none" stroke="#ea580c" stroke-width="2" opacity="0.15" transform="rotate(62 707 283)"/><rect x="436" y="146" width="137" height="137" rx="12" fill="none" stroke="#ea580c" stroke-width="2" opacity="0.15" transform="rotate(24 504 214)"/>
  <rect x="40" y="40" width="72" height="72" rx="18" fill="url(#acc-case-study-family-sharing-charge-dispute-resolved)"/>
  <text x="76" y="92" font-family="-apple-system,BlinkMacSystemFont,sans-serif" font-size="38" font-weight="900" fill="white" text-anchor="middle">👨‍👩‍👧</text>
  <text x="130" y="80" font-family="-apple-system,BlinkMacSystemFont,sans-serif" font-size="14" font-weight="800" fill="#ea580c" letter-spacing="0.08em">FAMILY</text>
  <text x="40" y="160" font-family="-apple-system,BlinkMacSystemFont,sans-serif" font-size="13" fill="#64748b" font-weight="500">Storewise · Decision Research</text>
  <rect x="40" y="180" width="6" height="60" rx="3" fill="url(#acc-case-study-family-sharing-charge-dispute-resolved)"/>
  <text x="60" y="210" font-family="-apple-system,BlinkMacSystemFont,sans-serif" font-size="18" font-weight="700" fill="#1e293b">Case Study: A Family Sharing Charge Dispute Resolved — What </text>
  <text x="40" y="250" font-family="-apple-system,BlinkMacSystemFont,sans-serif" font-size="13" fill="#ea580c" font-weight="600">souk.eu.org/articles/case-study-family-sharing-charge-dispute-resolved</text>
</svg>