<svg xmlns="http://www.w3.org/2000/svg" width="800" height="320" viewBox="0 0 800 320">
  <defs>
    <linearGradient id="bg-family-sharing-ask-to-buy-and-unexpected-charges" x1="0%" y1="0%" x2="100%" y2="100%">
      <stop offset="0%" style="stop-color:#fff7ed"/>
      <stop offset="100%" style="stop-color:#fed7aa"/>
    </linearGradient>
    <linearGradient id="acc-family-sharing-ask-to-buy-and-unexpected-charges" x1="0%" y1="0%" x2="100%" y2="0%">
      <stop offset="0%" style="stop-color:#ea580c"/>
      <stop offset="100%" style="stop-color:#fb923c"/>
    </linearGradient>
  </defs>
  <rect width="800" height="320" fill="url(#bg-family-sharing-ask-to-buy-and-unexpected-charges)" rx="20"/>
  <circle cx="682" cy="212" r="102" fill="#ea580c" opacity="0.12"/><circle cx="639" cy="34" r="89" fill="#fb923c" opacity="0.18"/><circle cx="786" cy="204" r="97" fill="#ea580c" opacity="0.19"/><circle cx="596" cy="148" r="78" fill="#fb923c" opacity="0.12"/><circle cx="534" cy="260" r="96" fill="#ea580c" opacity="0.06"/><circle cx="730" cy="106" r="38" fill="#fb923c" opacity="0.09"/>
  <rect x="392" y="72" width="72" height="72" rx="12" fill="none" stroke="#ea580c" stroke-width="2" opacity="0.15" transform="rotate(232 428 108)"/><rect x="133" y="187" width="129" height="129" rx="12" fill="none" stroke="#ea580c" stroke-width="2" opacity="0.15" transform="rotate(254 197 251)"/><rect x="596" y="186" width="76" height="76" rx="12" fill="none" stroke="#ea580c" stroke-width="2" opacity="0.15" transform="rotate(64 634 224)"/>
  <rect x="40" y="40" width="72" height="72" rx="18" fill="url(#acc-family-sharing-ask-to-buy-and-unexpected-charges)"/>
  <text x="76" y="92" font-family="-apple-system,BlinkMacSystemFont,sans-serif" font-size="38" font-weight="900" fill="white" text-anchor="middle">👨‍👩‍👧</text>
  <text x="130" y="80" font-family="-apple-system,BlinkMacSystemFont,sans-serif" font-size="14" font-weight="800" fill="#ea580c" letter-spacing="0.08em">FAMILY</text>
  <text x="40" y="160" font-family="-apple-system,BlinkMacSystemFont,sans-serif" font-size="13" fill="#64748b" font-weight="500">Storewise · Decision Research</text>
  <rect x="40" y="180" width="6" height="60" rx="3" fill="url(#acc-family-sharing-ask-to-buy-and-unexpected-charges)"/>
  <text x="60" y="210" font-family="-apple-system,BlinkMacSystemFont,sans-serif" font-size="18" font-weight="700" fill="#1e293b">Family Sharing, Ask to Buy, and Unexpected Charges on Shared</text>
  <text x="40" y="250" font-family="-apple-system,BlinkMacSystemFont,sans-serif" font-size="13" fill="#ea580c" font-weight="600">souk.eu.org/articles/family-sharing-ask-to-buy-and-unexpected-charges</text>
</svg>