<svg xmlns="http://www.w3.org/2000/svg" width="800" height="320" viewBox="0 0 800 320">
  <defs>
    <linearGradient id="bg-google-play-vs-app-store-refund-protection-compared" x1="0%" y1="0%" x2="100%" y2="100%">
      <stop offset="0%" style="stop-color:#fff0f6"/>
      <stop offset="100%" style="stop-color:#fce7f3"/>
    </linearGradient>
    <linearGradient id="acc-google-play-vs-app-store-refund-protection-compared" x1="0%" y1="0%" x2="100%" y2="0%">
      <stop offset="0%" style="stop-color:#e11d48"/>
      <stop offset="100%" style="stop-color:#fb7185"/>
    </linearGradient>
  </defs>
  <rect width="800" height="320" fill="url(#bg-google-play-vs-app-store-refund-protection-compared)" rx="20"/>
  <circle cx="498" cy="148" r="78" fill="#e11d48" opacity="0.13"/><circle cx="528" cy="59" r="106" fill="#fb7185" opacity="0.07"/><circle cx="429" cy="274" r="109" fill="#e11d48" opacity="0.13"/><circle cx="723" cy="124" r="59" fill="#fb7185" opacity="0.14"/><circle cx="842" cy="119" r="63" fill="#e11d48" opacity="0.14"/><circle cx="749" cy="241" r="94" fill="#fb7185" opacity="0.14"/>
  <rect x="608" y="88" width="88" height="88" rx="12" fill="none" stroke="#e11d48" stroke-width="2" opacity="0.15" transform="rotate(248 652 132)"/><rect x="419" y="159" width="118" height="118" rx="12" fill="none" stroke="#e11d48" stroke-width="2" opacity="0.15" transform="rotate(199 478 218)"/><rect x="128" y="113" width="119" height="119" rx="12" fill="none" stroke="#e11d48" stroke-width="2" opacity="0.15" transform="rotate(174 187 172)"/>
  <rect x="40" y="40" width="72" height="72" rx="18" fill="url(#acc-google-play-vs-app-store-refund-protection-compared)"/>
  <text x="76" y="92" font-family="-apple-system,BlinkMacSystemFont,sans-serif" font-size="38" font-weight="900" fill="white" text-anchor="middle">↺</text>
  <text x="130" y="80" font-family="-apple-system,BlinkMacSystemFont,sans-serif" font-size="14" font-weight="800" fill="#e11d48" letter-spacing="0.08em">REFUNDS</text>
  <text x="40" y="160" font-family="-apple-system,BlinkMacSystemFont,sans-serif" font-size="13" fill="#64748b" font-weight="500">Storewise · Decision Research</text>
  <rect x="40" y="180" width="6" height="60" rx="3" fill="url(#acc-google-play-vs-app-store-refund-protection-compared)"/>
  <text x="60" y="210" font-family="-apple-system,BlinkMacSystemFont,sans-serif" font-size="18" font-weight="700" fill="#1e293b">Google Play vs App Store Refund Protection: A Practical Comp</text>
  <text x="40" y="250" font-family="-apple-system,BlinkMacSystemFont,sans-serif" font-size="13" fill="#e11d48" font-weight="600">souk.eu.org/articles/google-play-vs-app-store-refund-protection-compared</text>
</svg>